<svg id="Capa_1" data-name="Capa 1" xmlns="http://www.w3.org/2000/svg" viewBox="0 0 329.63 160.81"><defs><style>.cls-1{fill:#33b9cb;}.cls-2{fill:#b2deea;}</style></defs><path class="cls-1" d="M296.81,676.06c-1.51-32.46-3-63.78-4.46-96,21.78,0,42.58-1.46,63,.53,13,1.26,20.34,12.89,20.91,25.58,1,23.07.29,46.22.29,69.84h-33.9c-.7-4.91-.7-10.21-2.38-14.91-1.09-3-4.63-5.21-7.08-7.76-2.32,2.63-5.71,4.92-6.71,8-1.46,4.47-1.21,9.51-1.72,14.74Z" transform="translate(-126.89 -579.54)"/><path class="cls-1" d="M266.8,618.12l-15.32-2.9V579.6h32.18c6.35,41.75.44,72.63-36.31,75.92,4-7.27,7.07-12.45,9.83-17.77C260.33,631.66,263.23,625.44,266.8,618.12Z" transform="translate(-126.89 -579.54)"/><path class="cls-2" d="M226,618.12l-15.32-2.9V579.6h32.18c6.35,41.75.44,72.63-36.31,75.92,4-7.27,7.07-12.45,9.83-17.77C219.55,631.66,222.45,625.44,226,618.12Z" transform="translate(-126.89 -579.54)"/><path class="cls-2" d="M154.89,723.62v6.71h-28V694.17h27.33v6.72h-19v7.85H152v6.51H135.21v8.37Z" transform="translate(-126.89 -579.54)"/><path class="cls-2" d="M161,692h8.06v38.33H161Z" transform="translate(-126.89 -579.54)"/><path class="cls-2" d="M203.61,718.71h-21c.77,3.46,3.72,5.58,7.95,5.58a9.42,9.42,0,0,0,7-2.69l4.28,4.65c-2.58,3-6.45,4.5-11.46,4.5-9.61,0-15.86-6-15.86-14.31s6.35-14.31,14.82-14.31c8.17,0,14.47,5.47,14.47,14.41C203.77,717.16,203.66,718,203.61,718.71ZM182.48,714h13.69a6.94,6.94,0,0,0-13.69,0Z" transform="translate(-126.89 -579.54)"/><path class="cls-2" d="M239.42,716.44c0,8.73-6,14.31-13.85,14.31a10.81,10.81,0,0,1-8.37-3.36v13h-8V702.54h7.69v3.2c2-2.43,5-3.61,8.73-3.61C233.37,702.13,239.42,707.71,239.42,716.44Zm-8.16,0c0-4.81-3-7.7-7.08-7.7s-7.08,2.89-7.08,7.7,3.05,7.69,7.08,7.69S231.26,721.24,231.26,716.44Z" transform="translate(-126.89 -579.54)"/><path class="cls-2" d="M273.21,714.42v15.91h-8.06V715.66c0-4.49-2.07-6.56-5.63-6.56-3.88,0-6.66,2.38-6.66,7.49v13.74H244.8V692h8.06v13.43a12.18,12.18,0,0,1,8.83-3.3C268.25,702.13,273.21,706,273.21,714.42Z" transform="translate(-126.89 -579.54)"/><path class="cls-2" d="M305.09,714.47v15.86h-7.54v-3.46c-1.5,2.53-4.4,3.88-8.48,3.88-6.51,0-10.38-3.62-10.38-8.42s3.46-8.32,11.93-8.32H297c0-3.46-2.07-5.48-6.41-5.48a13.29,13.29,0,0,0-8,2.59l-2.9-5.63c3-2.18,7.55-3.36,12-3.36C300.18,702.13,305.09,706.05,305.09,714.47ZM297,721.55v-2.84H291.5c-3.77,0-5,1.4-5,3.25,0,2,1.71,3.36,4.55,3.36A5.94,5.94,0,0,0,297,721.55Z" transform="translate(-126.89 -579.54)"/><path class="cls-2" d="M340.79,714.42v15.91h-8.06V715.66c0-4.49-2.06-6.56-5.63-6.56-3.87,0-6.66,2.38-6.66,7.49v13.74h-8.06V702.54h7.69v3.25a12.21,12.21,0,0,1,9.2-3.66C335.83,702.13,340.79,706,340.79,714.42Z" transform="translate(-126.89 -579.54)"/><path class="cls-1" d="M356.14,701H344.57v-6.82h31.51V701H364.51v29.34h-8.37Z" transform="translate(-126.89 -579.54)"/><path class="cls-1" d="M403.21,714.47v15.86h-7.55v-3.46c-1.5,2.53-4.39,3.88-8.47,3.88-6.51,0-10.38-3.62-10.38-8.42s3.46-8.32,11.93-8.32h6.41c0-3.46-2.07-5.48-6.41-5.48a13.34,13.34,0,0,0-8,2.59l-2.89-5.63c3.05-2.18,7.54-3.36,12-3.36C398.3,702.13,403.21,706.05,403.21,714.47Zm-8.06,7.08v-2.84h-5.53c-3.77,0-5,1.4-5,3.25,0,2,1.71,3.36,4.55,3.36A5.94,5.94,0,0,0,395.15,721.55Z" transform="translate(-126.89 -579.54)"/><path class="cls-1" d="M410.5,692h8.05v38.33H410.5Z" transform="translate(-126.89 -579.54)"/><path class="cls-1" d="M438,719.43l-3.88,3.83v7.07h-8.05V692h8.05v21.7l11.78-11.16h9.61l-11.57,11.78,12.6,16h-9.76Z" transform="translate(-126.89 -579.54)"/></svg>