<svg id="Capa_1" data-name="Capa 1" xmlns="http://www.w3.org/2000/svg" viewBox="0 0 518.21 96.51"><defs><style>.cls-1{fill:#33b9cb;}.cls-2{fill:#b2deea;}</style></defs><path class="cls-1" d="M141,746.36c-1.51-32.46-3-63.78-4.47-96,21.79,0,42.58-1.46,63.05.52,13,1.27,20.33,12.9,20.9,25.59,1,23.07.3,46.22.3,69.84h-33.9c-.7-4.91-.7-10.21-2.38-14.91-1.09-3-4.64-5.21-7.08-7.76-2.32,2.63-5.71,4.92-6.72,8-1.46,4.47-1.2,9.5-1.72,14.74Z" transform="translate(-50.71 -649.84)"/><path class="cls-1" d="M110.94,688.42l-15.33-2.9V649.9h32.18c6.35,41.75.45,72.63-36.3,75.92,4-7.27,7.07-12.45,9.82-17.77C104.46,702,107.36,695.74,110.94,688.42Z" transform="translate(-50.71 -649.84)"/><path class="cls-2" d="M70.16,688.42l-15.33-2.9V649.9H87c6.35,41.75.45,72.63-36.3,75.92,4-7.27,7.07-12.45,9.82-17.77C63.68,702,66.58,695.74,70.16,688.42Z" transform="translate(-50.71 -649.84)"/><path class="cls-2" d="M267.28,705.54v6.71h-28V676.09h27.33v6.72h-19v7.85h16.79v6.51H247.6v8.37Z" transform="translate(-50.71 -649.84)"/><path class="cls-2" d="M273.38,673.92h8.06v38.33h-8.06Z" transform="translate(-50.71 -649.84)"/><path class="cls-2" d="M316,700.63H295c.78,3.46,3.72,5.58,8,5.58a9.44,9.44,0,0,0,7-2.68l4.29,4.64c-2.59,3-6.46,4.5-11.47,4.5-9.61,0-15.86-6-15.86-14.31s6.35-14.31,14.83-14.31c8.16,0,14.46,5.47,14.46,14.41C316.16,699.08,316.06,700,316,700.63Zm-21.13-4.7h13.69a6.94,6.94,0,0,0-13.69,0Z" transform="translate(-50.71 -649.84)"/><path class="cls-2" d="M351.81,698.36c0,8.73-6,14.31-13.84,14.31a10.8,10.8,0,0,1-8.37-3.36v13h-8.06V684.46h7.7v3.21c2-2.43,5-3.62,8.73-3.62C345.77,684.05,351.81,689.63,351.81,698.36Zm-8.16,0c0-4.81-3-7.7-7.08-7.7s-7.08,2.89-7.08,7.7,3.05,7.7,7.08,7.7S343.65,703.16,343.65,698.36Z" transform="translate(-50.71 -649.84)"/><path class="cls-2" d="M385.6,696.34v15.91h-8.06V697.58c0-4.49-2.06-6.56-5.63-6.56-3.87,0-6.66,2.38-6.66,7.49v13.74h-8.06V673.92h8.06v13.44a12.22,12.22,0,0,1,8.83-3.31C380.64,684.05,385.6,687.87,385.6,696.34Z" transform="translate(-50.71 -649.84)"/><path class="cls-2" d="M417.48,696.39v15.86h-7.54v-3.46c-1.5,2.53-4.39,3.88-8.47,3.88-6.51,0-10.39-3.62-10.39-8.42s3.46-8.32,11.94-8.32h6.4c0-3.46-2.06-5.48-6.4-5.48a13.36,13.36,0,0,0-8,2.59l-2.89-5.63c3-2.17,7.54-3.36,12-3.36C412.57,684.05,417.48,688,417.48,696.39Zm-8.06,7.08v-2.84h-5.53c-3.77,0-5,1.4-5,3.26s1.71,3.36,4.55,3.36A5.93,5.93,0,0,0,409.42,703.47Z" transform="translate(-50.71 -649.84)"/><path class="cls-2" d="M453.18,696.34v15.91h-8.06V697.58c0-4.49-2.06-6.56-5.63-6.56-3.87,0-6.66,2.38-6.66,7.49v13.74h-8.06V684.46h7.7v3.26a12.15,12.15,0,0,1,9.19-3.67C448.22,684.05,453.18,687.87,453.18,696.34Z" transform="translate(-50.71 -649.84)"/><path class="cls-1" d="M468.53,682.91H457v-6.82h31.51v6.82H476.9v29.34h-8.37Z" transform="translate(-50.71 -649.84)"/><path class="cls-1" d="M515.6,696.39v15.86h-7.54v-3.46c-1.5,2.53-4.4,3.88-8.48,3.88-6.5,0-10.38-3.62-10.38-8.42s3.46-8.32,11.93-8.32h6.41c0-3.46-2.07-5.48-6.41-5.48a13.36,13.36,0,0,0-8,2.59l-2.9-5.63a21.39,21.39,0,0,1,12-3.36C510.69,684.05,515.6,688,515.6,696.39Zm-8.06,7.08v-2.84H502c-3.77,0-5,1.4-5,3.26s1.71,3.36,4.55,3.36A5.94,5.94,0,0,0,507.54,703.47Z" transform="translate(-50.71 -649.84)"/><path class="cls-1" d="M522.89,673.92H531v38.33h-8.06Z" transform="translate(-50.71 -649.84)"/><path class="cls-1" d="M550.37,701.35l-3.87,3.83v7.07h-8.06V673.92h8.06v21.7l11.78-11.16h9.6l-11.57,11.78,12.61,16h-9.77Z" transform="translate(-50.71 -649.84)"/></svg>