<svg id="Capa_1" data-name="Capa 1" xmlns="http://www.w3.org/2000/svg" viewBox="0 0 600 600"><defs><style>.cls-1{fill:#33b9cb;}.cls-2{fill:#c8c1ca;}.cls-3{fill:#eff8f7;}.cls-4{fill:#fefefe;}.cls-5{fill:#dff1f2;}.cls-6{fill:#b7b1bb;}.cls-7{fill:#959197;}.cls-8{fill:#c2bbc4;}.cls-9{fill:#caccc9;}.cls-10{fill:#a59793;}</style></defs><rect class="cls-1" width="600" height="600"/><path d="M114.61,332.69a4.88,4.88,0,0,1,3.76-2.66c4.55-1,9-2.25,13.51-3.42.55-.14.75-.39.69-.93-.21-1.95-.4-3.89-.63-5.84-.32-2.75-.68-5.49-1-8.24q-.47-3.86-.86-7.72c-.44-4.46-.54-8.9,1.8-12.95,2.44-4.25,5.76-5.78,9.63-5.53a26,26,0,0,1,8.43,2.29l4.51,1.88c.91.37,1.06.29,1.14-.65.32-3.51.61-7,.94-10.53.34-3.69.66-7.38.91-11.07s.57-7.51.9-11.26c.36-3.9.62-7.8.92-11.7.31-4.15.65-8.29.9-12.44.2-3.27.47-6.55.71-9.82.31-4.23.58-8.47.93-12.7.26-3.16.48-6.31.72-9.46.3-4.08.7-8.16,1-12.24.32-3.75.58-7.5,1-11.25s.83-7.36,1.22-11q.66-6.24,1.81-12.41a46.82,46.82,0,0,1,6.69-16.23,53.88,53.88,0,0,1,9.27-11.09,67.14,67.14,0,0,1,12.65-9.17,88.23,88.23,0,0,1,15.89-7,91.47,91.47,0,0,1,14.58-3.56,5.45,5.45,0,0,0,1.89-.84A85.69,85.69,0,0,1,245.42,98,90.8,90.8,0,0,1,258,95.13a66,66,0,0,1,8.18-.77c1.12,0,2.22-.18,3.34-.19,2.56,0,5.12.17,7.68.32A78.61,78.61,0,0,1,288.14,96a82.08,82.08,0,0,1,17,5.37,8.62,8.62,0,0,0,3.65.82q48.17,0,96.32,0c1.45,0,1.46,0,1.95,1.41.94,2.77,1.63,5.62,2.3,8.47.15.65.42.77,1,.83,7.08.77,14.12,1.72,20.87,4.15a41.24,41.24,0,0,1,13.53,7.87,45.36,45.36,0,0,1,9.78,12.59A84.86,84.86,0,0,1,461,153.66a66.33,66.33,0,0,0,7.38,15.4A103.68,103.68,0,0,0,479.67,184c1.66,1.85,3.46,3.55,5.18,5.33a3.11,3.11,0,0,1,.54.7A74.58,74.58,0,0,1,465.09,172c.19,1.28.36,2.56.56,3.84.5,3.18.9,6.38,1.23,9.58.36,3.51.74,7,1.05,10.51.19,2.07.28,4.15.4,6.23q.36,5.91.7,11.82c.09,1.65.08,3.31.16,5,.17,3.74.13,7.49.24,11.23.23,7.67.23,15.35.13,23-.06,4.32-.07,8.64-.17,13-.1,4-.26,7.95-.55,11.92q-.48,6.61-1.19,13.22-1.29,11.6-3.68,23c-1.09,5.2-2.35,10.36-3.91,15.44a119.23,119.23,0,0,0-3.19,13.82,33,33,0,0,1-4.21,12c-2.06,3.28-4.78,5.77-8.77,6.25-3.84.46-7.66.29-11.14-1.77a12.43,12.43,0,0,1-3.15-2.85c-2.28-2.76-5.3-4.12-8.67-5.05-2.79-.77-4.71.49-6.56,2.2s-3.87,3.62-5.88,5.37c-4.66,4.06-12,2-14.94-.94a23.44,23.44,0,0,1-2.68-3.3,5.66,5.66,0,0,0-4.34-2.24,31.57,31.57,0,0,0-4.24,0q-18.27,0-36.55,0c-2.33,0-4.66.08-7,0-3.69-.19-7.38,0-11.05-.19-2.45-.13-4.89,0-7.34-.15-3.85-.19-7.71-.25-11.57-.39-3-.1-6-.15-9-.37-1.68-.13-3.37,0-5.06-.24a4.89,4.89,0,0,0-3.05,1,9.92,9.92,0,0,0-3.54,3.68c-1.58,2.83-3.78,4.85-7.11,5.34-4.31.62-7.94-.56-10.73-4-1.18-1.47-2.19-3.16-4-3.94-3.56-1.52-8.93-1-11.66,2.68a19.3,19.3,0,0,1-3.55,3.73c-3.47,2.73-8.74,2-11.86-.84-3.83-3.44-5.72-7.92-6.84-12.81a31.92,31.92,0,0,1-.76-6.54,9.28,9.28,0,0,0-1.68-4.54,52.06,52.06,0,0,1-5.33-11.87,56.44,56.44,0,0,1-1.88-9.29c-.27-2.19-.26-4.39-.49-6.58,0-.43-.15-.63-.63-.68-2.3-.26-4.62-.4-6.89-.87a1.68,1.68,0,0,0-1.05.21,56.29,56.29,0,0,0-12,7.19,54.79,54.79,0,0,0-6.58,6.07c-1.18,1.25-2.22,2.63-3.39,3.89a12.29,12.29,0,0,1-7.78,3.66c-5,.64-9.72-.38-14.46-1.61-2.05-.53-4.08-1.1-6.09-1.74-.79-.24-.88,0-.82.68.19,2.19.37,4.38.51,6.58.11,1.65.27,3.3.37,5s.27,3.55.25,5.34a5,5,0,0,1-3.5,4.81c-10.1,3.3-20.18,6.66-30.46,9.38-1.08.29-2.18.5-3.26.78a5.58,5.58,0,0,1-3.51-.46,1.68,1.68,0,0,1-1-1.68,5.83,5.83,0,0,1,.18-2.24c.71-2,0-3.91-.57-5.82a23.75,23.75,0,0,0-3.36-6.28,36.3,36.3,0,0,1-3.51-5.79Z"/><path d="M253.51,58.42c.79,1.49,1.54,3,2.37,4.45,4,7.09,9.35,12.8,16.92,16.15A40.31,40.31,0,0,0,283,81.83c3.09.49,6.24.54,9.3,1.24,1.34.31,2.56.85,2.79,2.35a3.82,3.82,0,0,1-1.73,3.92,8.27,8.27,0,0,1-5.57,1.14,57.14,57.14,0,0,1-11-2.13,35.58,35.58,0,0,1-13.21-6.92c-5.2-4.48-8-10.25-9.28-16.86A46.78,46.78,0,0,1,253.51,58.42Z"/><path class="cls-2" d="M251,300.19a24.81,24.81,0,0,0,.4-5.65,17.09,17.09,0,0,0-12.27-15,15.81,15.81,0,0,0-6.46-.36c-.92.14-1.22.6-.67,1.46s.19,1.28-.5,1.81A60.62,60.62,0,0,1,219.62,290a32.34,32.34,0,0,1-15.06,2.71,49.36,49.36,0,0,0-7.88.09c-.82.09-1.81.11-2.19,1s.32,1.53.83,2.16a26.39,26.39,0,0,0,11.56,8.1c.3.11.59.25,1,.41a91.88,91.88,0,0,0-9.68,7.14,71.41,71.41,0,0,0-7.57,7.29,11.6,11.6,0,0,1-7.77,3.81c-5.35.61-10.53-.44-15.67-1.73a81,81,0,0,1-9.22-2.94,1.1,1.1,0,0,0-.84-.18q.48,3.66,1,7.34c.5,3.77,1,7.54,1.5,11.31a9.35,9.35,0,0,1-.09,2.89,4.86,4.86,0,0,1-3.58,4.12c-9.5,3-19.11,5.56-28.8,7.87-.81.19-.91,0-.8-.73a9.66,9.66,0,0,0-1-6c-1.3-2.6-2.78-5.09-4.16-7.63-1-1.87-1-1.84,1.07-2.42.73-.21,1-.08,1.36.62a40.3,40.3,0,0,0,3.25,5.85,2.27,2.27,0,0,0,1,1,2.1,2.1,0,0,0-.15-1.46,43.76,43.76,0,0,0-2.4-6.05c-.24-.5-.19-.68.39-.86,2.42-.72,4.83-1.5,7.24-2.3.51-.16.72-.1.88.45a45.07,45.07,0,0,0,1.95,5.35,4.13,4.13,0,0,0,1,1.56c.34-.3.21-.67.18-1a34.52,34.52,0,0,0-1.35-6.27c-.18-.67-.13-1,.59-1.15,1.56-.43,1.55-.46,1.48-2.05,0-.27,0-.54-.05-.81-.19-1.94-.19-1.93,1.76-2.25a38,38,0,0,0,5-1.11,1.91,1.91,0,0,0,1.18-.61c-.31-.38-.73-.28-1.09-.29a39.35,39.35,0,0,0-6.6.42c-.62.07-.76-.09-.82-.68-.25-2.61-.54-5.22-.85-7.83-.06-.55,0-.79.64-.88a43.14,43.14,0,0,0,6.56-1.35,2.14,2.14,0,0,0,1.21-.62,2,2,0,0,0-1.33-.29,40.38,40.38,0,0,0-6.5.48c-.63.1-.84,0-.9-.68-.3-3.55-.67-7.1-.87-10.66,0-.66.15-.76.75-.54a33.28,33.28,0,0,0,4.51,1.31,3.13,3.13,0,0,0,1.3.07c0-.53-.49-.66-.81-.85a32.91,32.91,0,0,0-5-2.35.87.87,0,0,1-.64-1.14,12.67,12.67,0,0,1,2-5.65,5.38,5.38,0,0,1,6.05-1.6c.43.2.31.56.33.85A39.75,39.75,0,0,0,144,297a1.46,1.46,0,0,0,.48,1A7.09,7.09,0,0,0,145,295c.1-1.12.09-2.24.09-3.36,0-.51.13-.63.62-.45a58.19,58.19,0,0,1,7.39,3.19c.47.24.48.47.32.92a43.48,43.48,0,0,0-1.57,5.29,4,4,0,0,0-.09,1.47c.54-.12.67-.56.87-.89a35.53,35.53,0,0,0,2.34-5c.21-.51.38-.74,1-.45a4.4,4.4,0,0,0,1.3.36,1.66,1.66,0,0,0,1.94-1,1,1,0,0,1,1.2-.65,29,29,0,0,0,5.89,0c.28,0,.61,0,.81-.34a4.45,4.45,0,0,0-2.18-.75c-1.31-.25-2.63-.4-3.94-.61-.33-.05-.74,0-.64-.6a68.86,68.86,0,0,0,.69-7.58c0-.63.22-.79.87-.76,1.53.09,3.08.08,4.62.07a2.33,2.33,0,0,0,1.57-.39,5.13,5.13,0,0,0-2.4-.81c-1.24-.25-2.5-.43-3.76-.57-.54-.06-.72-.21-.68-.77.2-2.47.38-4.94.52-7.42,0-.66.29-.77.89-.75,1.66,0,3.32,0,5,0a2.56,2.56,0,0,0,1.36-.29c-.24-.48-.73-.5-1.13-.61a38.79,38.79,0,0,0-5.26-.9c-.42,0-.66-.1-.61-.63.21-2.47.4-4.94.54-7.41,0-.77.33-.93,1-.87a25.94,25.94,0,0,0,5.43,0c.31,0,.67,0,.92-.36a4.06,4.06,0,0,0-2.09-.73c-1.48-.28-3-.51-4.48-.7-.48-.06-.58-.24-.54-.68.21-2.56.41-5.12.58-7.69,0-.61.39-.56.8-.52a38.32,38.32,0,0,0,5.25.09c.46,0,1.27,0,1.29-.34,0-.57-.76-.52-1.21-.64a33.75,33.75,0,0,0-5.09-.83c-.62-.05-.85-.22-.78-.94.26-2.44.44-4.88.6-7.32,0-.55.16-.71.74-.67a44.35,44.35,0,0,0,5.53.08,2.06,2.06,0,0,0,1.31-.34,1.6,1.6,0,0,0-1.09-.56,34.6,34.6,0,0,0-5.54-.91c-.56-.06-.76-.22-.71-.83.77-8.88,1.51-17.76,2.29-26.64.6-6.83,1.21-13.66,1.88-20.49.78-7.93,1.61-15.86,2.64-23.77A152.58,152.58,0,0,1,174,151.38a45.45,45.45,0,0,1,9.64-18.56c6.23-7.43,14.1-12.6,22.94-16.37a80.37,80.37,0,0,1,9.38-3.32l.64-.16c-1.39,1.2-2.64,2.22-3.83,3.31a86.67,86.67,0,0,0-27.06,46.32,82.63,82.63,0,0,0-1.4,28.56q4.86,37.89,35.64,60.6c.75.55,1.48,1.12,2.22,1.68a120.37,120.37,0,0,0,13.22,8,4,4,0,0,1,1.48,1.28,27.29,27.29,0,0,0,19.28,11.67,31.07,31.07,0,0,0,16.28-2,2.41,2.41,0,0,0,.5-.21c1.62-1.17,3.48-1.12,5.37-1.17,2.87-.06,5.72-.39,8.57-.73.36,0,.88-.28,1,.38-.82,4.05-1.71,8.09-2.46,12.15-1,5.28-2.13,10.55-2.32,15.93-.18,5,1.16,9.56,5,13.1a11.85,11.85,0,0,0,4.66,2.5,13.94,13.94,0,0,0,10.43-.1c4.95-1.92,7.12-5.86,7.76-10.9.42-3.34-.28-6.56-.9-9.79-1.36-7.1-3.09-14.11-5.07-21.07-.44-1.57-.92-3.13-1.34-4.7-.31-1.15-.18-1.46.94-1.86a87.26,87.26,0,0,0,28.13-16.71,88.2,88.2,0,0,0,12.57-13.76,86.48,86.48,0,0,0,16.4-43.21,83.1,83.1,0,0,0,.41-10.22,87.83,87.83,0,0,0-7.8-33.88,86.8,86.8,0,0,0-14.16-21.72A98.17,98.17,0,0,0,319,108.86l-1.17-.73H319q39.52,0,79.06,0a1.35,1.35,0,0,1,1.55,1.14,260.64,260.64,0,0,1,8.18,31.62c1.14,5.85,2.1,11.72,2.84,17.63q.88,7.14,1.34,14.31c.34,5.46.56,10.93.5,16.4s-.35,11.1-.86,16.63a166.77,166.77,0,0,1-3.66,22.78,132.34,132.34,0,0,1-20.56,46.67,115.66,115.66,0,0,1-9,11.24,8.54,8.54,0,0,0-1.05,1.33,46.5,46.5,0,0,0,8.6-6.35,16.92,16.92,0,0,0,2.52-2.19,101.58,101.58,0,0,0,21.61-27.41,125.2,125.2,0,0,0,10.39-26.73,161.27,161.27,0,0,0,4.51-25q.56-5.26.8-10.56c.21-4.62.43-9.24.32-13.86-.1-4-.24-8.08-.48-12.12q-.7-11.64-2.41-23.16c-.93-6.31-2.07-12.58-3.48-18.8-.14-.59-.48-1.22,0-1.81A36,36,0,0,1,427,122c10.19,3.9,17.38,11.17,22.85,20.37a72.68,72.68,0,0,1,8,20.6A148.91,148.91,0,0,1,460.74,180c.65,5.42,1.11,10.86,1.46,16.31.46,7.3.71,14.6.89,21.91.41,16.32.36,32.64.32,49,0,5-.29,10.08-.66,15.11-.35,4.87-.84,9.73-1.52,14.56a205.8,205.8,0,0,1-5.14,25.06c-1.24,4.55-2.75,9-3.79,13.61-.69,3-1,6.12-1.75,9.12a23.83,23.83,0,0,1-3.29,8.15,6.76,6.76,0,0,1-6.49,3.14c-.78-.07-1.56-.06-2.34-.18a6.73,6.73,0,0,1-4.27-2.46c-2.14-2.51-4.51-4.76-7.69-5.89a16.37,16.37,0,0,0-10-.78,13.79,13.79,0,0,0-4.82,2.61,42.3,42.3,0,0,0-3.29,3c-.72.7-1.49,1.34-2.17,2.07-2.79,3-8.3,1.66-9.79-1.33a15,15,0,0,0-.84-1.29c-2.47-4.12-6.34-5.56-10.87-5.32-6.49.34-13,.72-19.47,1q-20.26.8-40.53.59c-9.58-.11-19.16-.45-28.72-1.12-1.26-.09-2.53-.23-3.79-.32a7.71,7.71,0,0,0-7,3.38c-.92,1.24-1.61,2.62-2.43,3.93a4.62,4.62,0,0,1-7.4.76,24.44,24.44,0,0,1-2.4-3c-5.14-7.49-15.73-6.56-20.76-1.34-.84.87-1.63,1.78-2.4,2.71a13.16,13.16,0,0,1-1.74,1.84,4.21,4.21,0,0,1-6.22-.36,14.24,14.24,0,0,1-3.13-5.95,23.48,23.48,0,0,1-1.15-6.95,22.7,22.7,0,0,0-2.47-10.2,55.33,55.33,0,0,1-4.5-11.43,45.3,45.3,0,0,1-1.39-9.48c-.11-.85.56-.72,1-.73,1.69-.07,3.38-.18,5.05-.4a26.62,26.62,0,0,0,10.12-3.18,18.83,18.83,0,0,0,5.19-4.59C250.93,301.11,250.82,300.62,251,300.19Z"/><path class="cls-3" d="M231.3,150.59a52.68,52.68,0,0,0-5.93,9.71,46.35,46.35,0,0,0,9.42,51.95,1.3,1.3,0,0,1,.1.15c0,.34-.15.33-.38.21a27.4,27.4,0,0,1-5.72-3.25A22.89,22.89,0,0,0,205,206.89a51.24,51.24,0,0,0-5.34,2.81c-.55,0-.67-.47-.85-.82a75,75,0,0,1-5.46-14.18,60.23,60.23,0,0,1-1.38-7.4c.38,2.82.86,5.63,1.38,8.43a76.61,76.61,0,0,0,4.07,14.08,1.42,1.42,0,0,1,.09,1.38c-.72.6-1.46,1.16-2.14,1.8-.5.46-.69.42-1-.22a83.08,83.08,0,0,1-4.33-13.31,78.52,78.52,0,0,1-2-23.66,79.67,79.67,0,0,1,24.33-52.73,78,78,0,0,1,43.12-21.83c23.65-3.81,45,1.71,63.84,16.54,14.56,11.48,23.89,26.45,28.27,44.47a79.78,79.78,0,0,1,1.89,26,81.38,81.38,0,0,1-5.88,23.9,7.59,7.59,0,0,1-2.25,2.56,9.77,9.77,0,0,1-2.94,1.92c-.4.08-.37-.22-.35-.44a2.43,2.43,0,0,1,.34-.93,75,75,0,0,0,7.36-25A79.16,79.16,0,0,0,346,173.9a76.6,76.6,0,0,0-3.23-16,74.93,74.93,0,0,0-8.41-18,78.07,78.07,0,0,0-9.71-12.27,77.26,77.26,0,0,0-28.81-18.81,85.44,85.44,0,0,0-16-4,37.06,37.06,0,0,0-4.46-.61c-.29-.23-.6-.12-.91-.11-.12.06,0,.18,0,.07s0-.08,0-.08a1.52,1.52,0,0,1,.79.05,56.45,56.45,0,0,1,8.13,1.6,72.6,72.6,0,0,1,27.41,14.72,72.8,72.8,0,0,1,18.93,85.42,77.17,77.17,0,0,1-4.55,8.45c-.29.47-.56,1-1.3.85-2.54-1-4.95-2.22-7.49-3.16a13.75,13.75,0,0,0-10.32-.17c-2.2.88-4.53,1.45-6.81,2.16-.39.12-.81.19-1.31.31.13-.42.44-.56.66-.77a46.17,46.17,0,0,0-20.49-78.88c-14.31-3.38-27.41-.41-39.17,8.44-.1.07-.21.12-.31.18-.34-.37-.1-.74,0-1.1,2.1-5.65,1.39-10.94-2.44-15.57a14.59,14.59,0,0,0-14.92-5.29,15,15,0,0,0-12.17,12.9,15.43,15.43,0,0,0,20.92,16.52C230.48,150.58,230.87,150.31,231.3,150.59Z"/><path class="cls-4" d="M255,224a42.51,42.51,0,0,0,12.43,1.68,45.51,45.51,0,0,0,24.74-7.31,8.87,8.87,0,0,1,3.36-.94,58.4,58.4,0,0,0,11-3.11,12.2,12.2,0,0,1,9.4.21c3.49,1.35,6.8,3.12,10.33,4.36s7,1.94,10.74,1a14.46,14.46,0,0,0,3.49-1.45c.2.23,0,.4-.08.58a80.57,80.57,0,0,1-42.22,37.51.64.64,0,0,1-.94-.31c-.6-.91-1.22-1.8-1.87-2.67a3.5,3.5,0,0,0-1.22-1.16,5.84,5.84,0,0,0,.49,1.9c3.43,12.39,6.77,24.81,9.23,37.44a26.08,26.08,0,0,1,.4,10.52c-.59,2.82-1.78,5.28-4.51,6.63-3.76,1.87-7.3.78-10-3a16.57,16.57,0,0,1-2.8-12.13c1.16-9,2.87-17.85,4.6-26.73.56-2.89,1.18-5.78,1.8-8.77-1.67.46-3.25.92-4.84,1.33a80.48,80.48,0,0,1-8.7,1.69,31.27,31.27,0,0,0-8.48,2.79,28,28,0,0,1-11.61,2.8,28.47,28.47,0,0,1-15.45-5,36.68,36.68,0,0,1-7-5.85,4.38,4.38,0,0,0-1.39-1,80.84,80.84,0,0,1-39.76-38.3.94.94,0,0,1,.21-1.36c4.31-3.84,9.1-6.77,14.85-7.85a19.58,19.58,0,0,1,14.78,3.06,63.24,63.24,0,0,0,6.4,3.91,17.29,17.29,0,0,0,16.42,0c1.15-.59,2.36-1.08,3.5-1.69a12,12,0,0,1,9.72-.79c4.51,1.43,8.95,3,13.52,4.3a45.36,45.36,0,0,0,14.23,1.77h.86a38,38,0,0,1-5.18,2.55,52.62,52.62,0,0,1-29.47,3.3c-.27,0-.54,0-.81-.08a8.66,8.66,0,0,1-.89-.07,1,1,0,0,0-.55-.18c-.13,0-.05.13,0,0h.16A13.85,13.85,0,0,0,255,224Z"/><path class="cls-5" d="M275.32,104.14a56.3,56.3,0,0,1,11.41,1.66,74.09,74.09,0,0,1,18.45,6.84,77.93,77.93,0,0,1,12.87,8.51,66.61,66.61,0,0,1,5.48,4.85,79.5,79.5,0,0,1,9.24,11,78.22,78.22,0,0,1,9.69,19.15,85.8,85.8,0,0,1,3.46,14.38,77.78,77.78,0,0,1,.65,15.24A72.39,72.39,0,0,1,343.9,202a75.64,75.64,0,0,1-5.37,13.91c-.12.22-.36.47,0,.72a10.9,10.9,0,0,1-7,1,26,26,0,0,1-7.58-2.48c.58,0,.76-.57,1-1a73.77,73.77,0,0,0,6.23-12.44A75.42,75.42,0,0,0,335,188.1a69.48,69.48,0,0,0,.91-16.85A71.56,71.56,0,0,0,330.07,147,72.46,72.46,0,0,0,321.32,132a66.46,66.46,0,0,0-7.42-8.39,77,77,0,0,0-16-11.62,74.55,74.55,0,0,0-20.79-7.43,6.45,6.45,0,0,1-1.83-.4Z"/><path class="cls-6" d="M419.72,119.91c.25,2,.81,3.94,1.22,5.92.85,4.16,1.62,8.33,2.23,12.53.47,3.24,1,6.47,1.39,9.72.34,2.66.52,5.33.78,8q.54,5.63.77,11.26c.05,1.32.05,2.65.14,4,.24,3.62.22,7.24.16,10.86-.05,3.16-.15,6.33-.37,9.48-.28,3.9-.61,7.8-1.09,11.67a156.68,156.68,0,0,1-5.46,26.42,129.11,129.11,0,0,1-6.47,17,104.56,104.56,0,0,1-11.76,19.38,90.41,90.41,0,0,1-6.89,7.9,95.63,95.63,0,0,1-7.68,7.11c-.24.19-.42.44-.77.4a92.23,92.23,0,0,0,8-8.84,102.93,102.93,0,0,0,15.78-29.6,147.05,147.05,0,0,0,6.74-28.32,193.61,193.61,0,0,0,1.8-21.39c0-1.14.12-2.29.18-3.43a1,1,0,0,0,.07-.54c.07-4.92,0-9.84-.16-14.76,0-.12,0,0,0-.08s-.08-.06-.12,0a27.09,27.09,0,0,1-.3-4.41c-.34-5.81-.91-11.6-1.55-17.38q-1.17-10.58-3-21.05c-.72-4.16-1.51-8.3-2.4-12.43-.15-.7,0-.77.65-.71a63.92,63.92,0,0,1,7.69,1.14A2.44,2.44,0,0,1,419.72,119.91Z"/><path class="cls-7" d="M319,108.86a14.58,14.58,0,0,1,3.27,1.89,88.14,88.14,0,0,1,13.45,10.68,87,87,0,0,1,13.85,17.24,85.85,85.85,0,0,1,11.11,28.45,95.32,95.32,0,0,1,1.56,13.27,82.22,82.22,0,0,1-.28,11.75,86.12,86.12,0,0,1-7.15,27.45,87.64,87.64,0,0,1-11.78,19.27,89.46,89.46,0,0,1-12.4,12.52,87.06,87.06,0,0,1-18.94,11.95,69.3,69.3,0,0,1-7.21,2.93c-.74.26-.87.55-.65,1.31,2.6,8.7,4.87,17.49,6.59,26.41a36.84,36.84,0,0,1,.91,6.34c.09,4.34-.71,8.42-4,11.64a13.13,13.13,0,0,1-7.69,3.5,10.83,10.83,0,0,1-6-.57,2,2,0,0,1-.93-.54,19.35,19.35,0,0,0,6.3-.44,12.56,12.56,0,0,0,9.51-11.28,33.13,33.13,0,0,0-.82-10,270.9,270.9,0,0,0-7.3-28.76c-.26-.82-.11-1.1.69-1.41,26.11-10.25,43.56-28.75,52.43-55.32a77.76,77.76,0,0,0,3.79-20.24,86.27,86.27,0,0,0-18.58-59.78,84.61,84.61,0,0,0-19-17.73C319.49,109.24,319.27,109,319,108.86Z"/><path class="cls-4" d="M231.3,150.59a15.27,15.27,0,0,1-6.36,1.58,15.78,15.78,0,0,1-10.4-3.52,15.82,15.82,0,0,1-4.69-18.22A15.34,15.34,0,0,1,221.29,121a15.11,15.11,0,0,1,13.19,3.34,15.32,15.32,0,0,1,5.6,10.4,14.39,14.39,0,0,1-1.13,7.7,1.81,1.81,0,0,0-.27.85l-.39.56a6.74,6.74,0,0,1,6.38,2.65,6.65,6.65,0,0,1,1.3,4.86,6.72,6.72,0,0,1-6.83,5.93c-3.77-.05-6.38-2.88-6.65-7.24C232,150.05,231.71,150.44,231.3,150.59Z"/><path class="cls-4" d="M206.62,298c1.4-.14,2.8-.24,4.2-.43a48.94,48.94,0,0,0,20.4-8.12c2-1.33,4-2.69,6-4.06a1.55,1.55,0,0,1,1.75-.13,15.21,15.21,0,0,1,7.65,9,1,1,0,0,1-.31,1,14.48,14.48,0,0,1-5.64,3.67,33,33,0,0,1-10,2.11,60.69,60.69,0,0,1-20.91-1.92c-1-.29-2.06-.64-3.1-1Z"/><path class="cls-7" d="M287.86,270.67c-.24-.29-.54-.12-.83-.09-2.15.24-4.31.5-6.47.65-1.69.11-3.38.13-5.06.16a1.61,1.61,0,0,0-.69.18A29.29,29.29,0,0,1,258.38,275a27.42,27.42,0,0,1-17.2-7,28.25,28.25,0,0,1-4.82-5.48,2.17,2.17,0,0,0-.94-.68,86.84,86.84,0,0,1-12.74-7.93c-.19-.15-.34-.34-.51-.5.35-.07.55.21.79.37a87.09,87.09,0,0,0,14.31,7.59,4.45,4.45,0,0,1,1.34.9c5.14,4.79,11,8.27,18,9.52a26.21,26.21,0,0,0,12.18-.9c3.64-1.07,7.19-2.51,10.94-3.22,2.87-.54,5.77-1,8.65-1.51.42-.08.54,0,.43.44C288.47,268,288.18,269.33,287.86,270.67Z"/><path class="cls-6" d="M251,300.19a2.3,2.3,0,0,1-.82,2.4,19.11,19.11,0,0,1-7.57,5.24,31.85,31.85,0,0,1-9.84,2c-1,.05-1.91.17-2.88.15-.32,0-.6.05-.68.43a17.35,17.35,0,0,1-.17-3c0-.65.45-.5.81-.54a49.58,49.58,0,0,0,10.72-2.08,25.09,25.09,0,0,0,7.29-3.75,1.05,1.05,0,0,1,1.22-.15C250.2,301.46,250.48,301.32,251,300.19Z"/><path class="cls-5" d="M197.52,211.19a39.47,39.47,0,0,0-1.44-4,84.23,84.23,0,0,1-3.8-15.88c-.21-1.51-.3-3-.36-4.58.53,2.89,1.19,5.73,2,8.56a65.55,65.55,0,0,0,3.87,10.51,27.07,27.07,0,0,0,1.93,3.89Z"/><path class="cls-8" d="M418.23,174.57l.08-.7c.17,1.47.23,2.95.28,4.42.11,3.58,0,7.18,0,10.77,0,.3.07.61-.16.87C418.48,184.81,418.36,179.69,418.23,174.57Z"/><path class="cls-9" d="M234.51,212.61c.14,0,.3-.05.38-.21a.85.85,0,0,1,.5.56A1.5,1.5,0,0,1,234.51,212.61Z"/><path d="M255,224l-.72-.19s-.07-.08,0-.11,0-.06,0-.06a1.68,1.68,0,0,1,1,.19Z"/><path class="cls-5" d="M275.32,104.14h-.86a.62.62,0,0,1,.86,0Z"/><path d="M254.29,223.64a.49.49,0,0,1,0,.17l-1-.23C253.74,223.42,254,223.42,254.29,223.64Z"/><path class="cls-10" d="M252.31,223.2c.32-.1.58-.12.6.07s-.18,0-.28.06S252.47,223.27,252.31,223.2Z"/><path d="M84.58,511.15H91.5v29.91H84.58Z"/><path d="M125.81,541.06l0-17.94L117,537.9h-3.12l-8.76-14.4v17.56H98.59V511.15h5.73l11.19,18.59,11-18.59h5.69l.08,29.91Z"/><path d="M159.1,534.65H145.21l-2.65,6.41h-7.09l13.33-29.91h6.83L169,541.06h-7.27Zm-2.18-5.25L152.17,518l-4.74,11.45Z"/><path d="M191.91,525.64h6.33v12.13a20.64,20.64,0,0,1-12.1,3.81c-9.4,0-16.32-6.46-16.32-15.47s6.92-15.47,16.45-15.47c5.26,0,9.62,1.8,12.52,5.17l-4.44,4.1a10.15,10.15,0,0,0-7.74-3.37c-5.81,0-9.78,3.89-9.78,9.57s4,9.57,9.7,9.57a11,11,0,0,0,5.38-1.28Z"/><path d="M227.81,535.51v5.55H204.65V511.15h22.6v5.56H211.53v6.49h13.88v5.39H211.53v6.92Z"/><path d="M272.84,511.15v29.91h-5.68L252.25,522.9v18.16h-6.84V511.15h5.73L266,529.31V511.15Z"/><path d="M278.06,526.11c0-8.89,6.92-15.47,16.36-15.47s16.37,6.54,16.37,15.47-7,15.47-16.37,15.47S278.06,535,278.06,526.11Zm25.72,0c0-5.68-4-9.57-9.36-9.57s-9.35,3.89-9.35,9.57,4,9.57,9.35,9.57S303.78,531.79,303.78,526.11Z"/><path d="M321.77,516.79H312.2v-5.64h26.06v5.64h-9.57v24.27h-6.92Z"/><path d="M361,516.71v7.9h13.84v5.56H361v10.89h-6.92V511.15h22.6v5.56Z"/><path d="M379.2,526.11c0-8.89,6.92-15.47,16.37-15.47s16.36,6.54,16.36,15.47-7,15.47-16.36,15.47S379.2,535,379.2,526.11Zm25.72,0c0-5.68-4-9.57-9.35-9.57s-9.36,3.89-9.36,9.57,4,9.57,9.36,9.57S404.92,531.79,404.92,526.11Z"/><path d="M416.89,527.9V511.15h6.92v16.5c0,5.68,2.48,8,6.67,8s6.66-2.35,6.66-8v-16.5H444V527.9c0,8.8-5,13.68-13.55,13.68S416.89,536.7,416.89,527.9Z"/><path d="M478.25,511.15v29.91h-5.68L457.65,522.9v18.16h-6.83V511.15h5.72l14.87,18.16V511.15Z"/><path d="M485.34,511.15h13.59c9.79,0,16.49,5.9,16.49,15s-6.7,14.95-16.49,14.95H485.34Zm13.25,24.23c5.94,0,9.83-3.55,9.83-9.27s-3.89-9.27-9.83-9.27h-6.32v18.54Z"/><path d="M176.89,428.18l-1.83,9.34h24.62l-2.3,11.71H172.69l-2,10.13h29l-2.53,12.11h-44.4l11.08-55.4h43.37l-2.46,12.11Z"/><path d="M247.72,454.85l9.42,16.62H240.76l-8.23-14.72h-7.92l-2.93,14.72H206l11.08-55.4h23.67c14.16,0,22.32,6.57,22.32,17.65C263.08,443.93,257.38,451.53,247.72,454.85Zm-9.18-26.43h-8.23L227,444.64h9.34c6.88,0,10.92-3.32,10.92-9.41C247.25,430.56,243.92,428.42,238.54,428.42Z"/><path d="M306.29,454.85l9.42,16.62H299.33l-8.23-14.72h-7.92l-2.93,14.72H264.58l11.08-55.4h23.67c14.16,0,22.32,6.57,22.32,17.65C321.65,443.93,316,451.53,306.29,454.85Zm-9.18-26.43h-8.23l-3.32,16.22h9.33c6.89,0,10.93-3.32,10.93-9.41C305.82,430.56,302.49,428.42,297.11,428.42Z"/><path d="M325.53,448.2c0-19.23,14.24-33.24,34.58-33.24,17,0,27.54,10.06,27.54,24.38,0,19.23-14.24,33.24-34.58,33.24C336.05,472.58,325.53,462.53,325.53,448.2Zm46.3-7.91c0-7.36-4.75-12.35-13.06-12.35-10.85,0-17.41,8.87-17.41,19.32,0,7.36,4.74,12.34,13.05,12.34C365.26,459.6,371.83,450.74,371.83,440.29Z"/><path d="M431.82,454.85l9.42,16.62H424.86l-8.24-14.72h-7.91l-2.93,14.72H390.11l11.08-55.4h23.67c14.16,0,22.31,6.57,22.31,17.65C447.17,443.93,441.48,451.53,431.82,454.85Zm-9.18-26.43h-8.23l-3.33,16.22h9.34c6.89,0,10.93-3.32,10.93-9.41C431.35,430.56,428,428.42,422.64,428.42Z"/></svg>